<svg width="25" height="25" viewBox="0 0 25 25" fill="none" xmlns="http://www.w3.org/2000/svg">
<g clip-path="url(#clip0_3836_392)">
<path d="M24.7021 12.7338C24.7021 11.7095 24.619 10.9621 24.4391 10.187H12.7433V14.8099H19.6085C19.4701 15.9588 18.7227 17.6889 17.0617 18.8515L17.0384 19.0063L20.7364 21.8711L20.9926 21.8966C23.3456 19.7236 24.7021 16.5262 24.7021 12.7338Z" fill="#4285F4"/>
<path d="M12.7433 24.9142C16.1067 24.9142 18.9303 23.8069 20.9927 21.8969L17.0617 18.8517C16.0098 19.5853 14.598 20.0974 12.7433 20.0974C9.44915 20.0974 6.65325 17.9244 5.65659 14.9209L5.51051 14.9333L1.66528 17.9092L1.61499 18.049C3.66346 22.1182 7.87119 24.9142 12.7433 24.9142Z" fill="#34A853"/>
<path d="M5.65658 14.9209C5.3936 14.1458 5.24141 13.3153 5.24141 12.4572C5.24141 11.599 5.3936 10.7685 5.64274 9.99343L5.63578 9.82835L1.74236 6.80469L1.61498 6.86528C0.770702 8.55392 0.286255 10.4502 0.286255 12.4572C0.286255 14.4641 0.770702 16.3603 1.61498 18.049L5.65658 14.9209Z" fill="#FBBC05"/>
<path d="M12.7433 4.8167C15.0825 4.8167 16.6603 5.8271 17.56 6.67147L21.0757 3.23884C18.9165 1.23187 16.1067 0 12.7433 0C7.87119 0 3.66346 2.7959 1.61499 6.86517L5.64276 9.99332C6.65325 6.98979 9.44915 4.8167 12.7433 4.8167Z" fill="#EB4335"/>
</g>
<defs>
<clipPath id="clip0_3836_392">
<rect width="25" height="25" fill="white"/>
</clipPath>
</defs>
</svg>
